{"title":"Die a Violent Death 2010 DVDRip Xvid fasamoo LKRG","uid":5694271,"size":734069851,"categoryP":"video","categoryS":"movies","magnet":"?xt=urn:btih:6b98dd252389e56386526a33dd53620089fbf329&amp;dn=Die+a+Violent+Death+2010+DVDRip+Xvid+fasamoo+LKRG&amp;tr=udp%3A%2F%2Ftracker.openbittorrent.com%3A80&amp;tr=udp%3A%2F%2Fopen.demonii.com%3A1337&amp;tr=udp%3A%2F%2Ftracker.coppersurfer.tk%3A6969&amp;tr=udp%3A%2F%2Fexodus.desync.com%3A6969","seeders":0,"leechers":1,"uploader":"fasamoo","files":3,"time":1279229148,"description":"PLOT\n\nAn omnibus film of four stories pulled straight from Thailand's most gruesome headlines. In &quot;Flame&quot;, a man is haunted by regret and a ghost after he survives a nightclub fire that killed his girlfriend. In &quot;Imprison&quot;, a prisoner questions his sanity after his cell-mate hangs himself. In &quot;Revenge&quot;, a deaf-mute drug dealer murders a woman thief in his apartment, and makes the mistake of stashing her corpse in his apartment building's water duct. Finally, in the comic &quot;Haunting Motel&quot;, an aging stripper-cum-prostitute, a gay guy and his straight friend end up in a hotel owned by a crazy old lady and haunted by a ladykiller.\n\n\nCAST\n\nStarring\nTAE .... Gong\nMi Pu Lun residue pull .... Phii Dao\nAkara Amarttayakul .... Arm\nSupakson Chaimongkol .... Nuan\n\nDirected by\nPoj Arnon\nChatchai Katenut\n\nGeneral\n\nDie a Violent Death 2010 DVDRip fasamoo LKRG\n\nRIPPER : fasamoo\nFormat : AVI\nFormat/Info : Audio Video Interleave\nFile size : 700 MiB\nDuration : 1h 40mn\nOverall bit rate : 976 Kbps\nWriting application : VirtualDubMod 1.5.4.1 (build 2178/release)\nWriting library : VirtualDubMod build 2178/release\nLanguage : Thai\nSubtitles : English(*.srt)\nGenre : Horror | Thriller\n\n\nVideo\nID : 0\nFormat : MPEG-4 Visual\nFormat profile : Advanced Simple@L5\nFormat settings, BVOP : Yes\nFormat settings, QPel : No\nFormat settings, GMC : No warppoints\nFormat settings, Matrix : Custom\nCodec ID : XVID\nCodec ID/Hint : XviD\nDuration : 1h 40mn\nBit rate : 851 Kbps\nWidth : 672 pixels\nHeight : 304 pixels\nDisplay aspect ratio : 2.2:1\nFrame rate : 25.000 fps\nColor space : YUV\nChroma subsampling : 4:2:0\nBit depth : 8 bits\nScan type : Progressive\nBits/(Pixel*Frame) : 0.167\nStream size : 610 MiB (87%)\nWriting library : XviD 1.2.1 (UTC 2008-12-04)\n\nAudio\nID : 1\nFormat : MPEG Audio\nFormat version : Version 1\nFormat profile : Layer 3\nMode : Joint stereo\nMode extension : MS Stereo\nCodec ID : 55\nCodec ID/Hint : MP3\nDuration : 1h 40mn\nBit rate mode : Variable\nBit rate : 112 Kbps\nNominal bit rate : 128 Kbps\nChannel(s) : 2 channels\nSampling rate : 48.0 KHz\nStream size : 80.5 MiB (12%)\nAlignment : Aligned on interleaves\nInterleave, duration : 24 ms (0.60 video frame)\nInterleave, preload duration : 164 ms\nWriting library : LAME3.98r\nEncoding settings : -m j -V 4 -q 2 -lowpass 17 --abr 128\n &lt;a href=&quot;\nhttp://www.imdb.com/title/tt1609160/&quot; rel=&quot;nofollow&quot; target=&quot;_NEW&quot;&gt;\nhttp://www.imdb.com/title/tt1609160/&lt;/a&gt;\n\nGreetz to all other respected RG's out there. Let the Legend Killing Continue....","torrent":{"xt":"urn:btih:6b98dd252389e56386526a33dd53620089fbf329","amp;dn":"Die+a+Violent+Death+2010+DVDRip+Xvid+fasamoo+LKRG","amp;tr":["udp%3A%2F%2Ftracker.openbittorrent.com%3A80","udp%3A%2F%2Fopen.demonii.com%3A1337","udp%3A%2F%2Ftracker.coppersurfer.tk%3A6969","udp%3A%2F%2Fexodus.desync.com%3A6969"],"infoHash":"6b98dd252389e56386526a33dd53620089fbf329","infoHashBuffer":{"type":"Buffer","data":[107,152,221,37,35,137,229,99,134,82,106,51,221,83,98,0,137,251,243,41]},"announce":[],"urlList":[]}}